<svg width="18" height="16" viewBox="0 0 18 16" fill="none" xmlns="http://www.w3.org/2000/svg">
<path d="M13.1665 0.925781H4.83317C2.33317 0.925781 0.666504 2.17578 0.666504 5.09245V10.9258C0.666504 13.8424 2.33317 15.0924 4.83317 15.0924H13.1665C15.6665 15.0924 17.3332 13.8424 17.3332 10.9258V5.09245C17.3332 2.17578 15.6665 0.925781 13.1665 0.925781ZM13.5582 6.00078L10.9498 8.08412C10.3998 8.52578 9.69984 8.74245 8.99984 8.74245C8.29984 8.74245 7.5915 8.52578 7.04984 8.08412L4.4415 6.00078C4.17484 5.78411 4.13317 5.38411 4.3415 5.11745C4.55817 4.85078 4.94984 4.80078 5.2165 5.01745L7.82484 7.10078C8.45817 7.60911 9.53317 7.60911 10.1665 7.10078L12.7748 5.01745C13.0415 4.80078 13.4415 4.84245 13.6498 5.11745C13.8665 5.38411 13.8248 5.78411 13.5582 6.00078Z" fill="#B060FF"/>
</svg>
