<svg width="155" height="28" viewBox="0 0 155 28" fill="none" xmlns="http://www.w3.org/2000/svg">
<g clip-path="url(#clip0_7141_5674)">
<path d="M14.4998 28C22.232 28 28.4998 21.7322 28.4998 14V4.2C28.4998 3.08609 28.0573 2.0178 27.2697 1.23015C26.482 0.442499 25.4137 0 24.2998 0L15.1998 0V6.1418C15.1998 7.5432 15.2852 8.995 16.0202 10.1878C16.5464 11.0426 17.2503 11.7743 18.0841 12.3332C18.918 12.892 19.8623 13.265 20.853 13.4267L21.1211 13.4701C21.2316 13.5079 21.3276 13.5793 21.3955 13.6743C21.4635 13.7693 21.5 13.8832 21.5 14C21.5 14.1168 21.4635 14.2307 21.3955 14.3257C21.3276 14.4207 21.2316 14.4921 21.1211 14.5299L20.853 14.5733C19.4055 14.8098 18.0689 15.4949 17.0318 16.532C15.9947 17.5691 15.3096 18.9057 15.0731 20.3532L15.0297 20.6213C14.9919 20.7318 14.9205 20.8278 14.8255 20.8957C14.7305 20.9636 14.6166 21.0002 14.4998 21.0002C14.383 21.0002 14.2691 20.9636 14.1741 20.8957C14.0791 20.8278 14.0077 20.7318 13.9699 20.6213L13.9265 20.3532C13.7647 19.3625 13.3917 18.4182 12.8329 17.5844C12.2741 16.7505 11.5424 16.0466 10.6876 15.5204C9.4948 14.7854 8.043 14.7 6.6416 14.7H0.516602C0.882702 22.1067 7.0028 28 14.4998 28Z" fill="#0A0A0A" fill-opacity="0.4"/>
<path d="M0.5 13.3H6.6418C8.0432 13.3 9.495 13.2146 10.6878 12.4796C11.6202 11.9051 12.4051 11.1202 12.9796 10.1878C13.7146 8.995 13.8 7.5432 13.8 6.1418V0H4.7C3.58609 0 2.5178 0.442499 1.73015 1.23015C0.942499 2.0178 0.5 3.08609 0.5 4.2L0.5 13.3ZM33.0185 1.4C33.0185 1.7713 32.871 2.1274 32.6084 2.38995C32.3459 2.6525 31.9898 2.8 31.6185 2.8C31.2472 2.8 30.8911 2.6525 30.6285 2.38995C30.366 2.1274 30.2185 1.7713 30.2185 1.4C30.2185 1.0287 30.366 0.672601 30.6285 0.410051C30.8911 0.1475 31.2472 0 31.6185 0C31.9898 0 32.3459 0.1475 32.6084 0.410051C32.871 0.672601 33.0185 1.0287 33.0185 1.4ZM148.698 8.4728C152.611 8.4728 154.5 11.2063 154.5 14.3724V20.3189H150.404V15.078C150.404 13.643 149.881 12.4586 148.379 12.4586C146.878 12.4586 146.377 13.643 146.377 15.078V20.3182H142.281V15.078C142.281 13.643 141.781 12.4586 140.279 12.4586C138.777 12.4586 138.254 13.643 138.254 15.078V20.3182H134.159V14.3717C134.159 11.2056 136.047 8.4721 139.96 8.4721C142.1 8.4721 143.646 9.3149 144.352 10.7044C145.103 9.3149 146.741 8.4714 148.698 8.4714V8.4728ZM126.799 16.674C128.118 16.674 128.688 15.4665 128.688 14.0308V8.9278H132.783V14.532C132.783 17.8808 130.826 20.6605 126.799 20.6605C122.771 20.6605 120.815 17.8815 120.815 14.532V8.9278H124.91V14.0308C124.91 15.4658 125.479 16.674 126.799 16.674ZM114.792 20.6829C112.221 20.6829 110.56 19.7946 109.582 18.0635L112.54 16.4003C112.949 17.129 113.563 17.4937 114.587 17.4937C115.429 17.4937 115.816 17.1976 115.816 16.8329C115.816 15.4434 109.809 16.856 109.809 12.4369C109.809 10.2949 111.629 8.5638 114.724 8.5638C117.431 8.5638 118.911 9.8847 119.571 11.1608L116.612 12.8464C116.363 12.1632 115.588 11.753 114.815 11.753C114.223 11.753 113.905 12.0036 113.905 12.3452C113.905 13.7578 119.912 12.4593 119.912 16.7419C119.912 19.1338 117.568 20.6829 114.792 20.6829ZM100.483 25.5584H96.3874V14.6006C96.3874 11.1146 99.004 8.5862 102.645 8.5862C106.194 8.5862 108.902 11.2973 108.902 14.6006C108.902 18.2455 106.49 20.6605 102.872 20.6605C102.03 20.6605 101.189 20.4099 100.483 20.0221V25.5584ZM102.645 16.8105C103.942 16.8105 104.806 15.8081 104.806 14.623C104.806 13.4162 103.942 12.4362 102.645 12.4362C101.348 12.4362 100.483 13.4162 100.483 14.6237C100.483 15.8081 101.348 16.8105 102.645 16.8105ZM92.2847 7.721C90.9421 7.721 89.8277 6.6045 89.8277 5.2605C89.8277 3.9165 90.9421 2.8 92.2847 2.8C93.6273 2.8 94.7424 3.9165 94.7424 5.2605C94.7424 6.6045 93.6273 7.721 92.2847 7.721ZM90.2372 8.9278H94.3329V20.3189H90.2372V8.9278ZM82.379 20.6605C78.8293 20.6605 76.1217 17.927 76.1217 14.6006C76.1217 11.2973 78.8293 8.5638 82.379 8.5638C85.9287 8.5638 88.6363 11.2973 88.6363 14.6006C88.6363 17.927 85.9287 20.6605 82.379 20.6605ZM82.379 16.8105C83.6761 16.8105 84.5406 15.8081 84.5406 14.623C84.5406 13.4162 83.6761 12.4138 82.379 12.4138C81.0819 12.4138 80.2174 13.4162 80.2174 14.623C80.2174 15.8081 81.0819 16.8105 82.379 16.8105ZM68.3881 25.9C65.5671 25.9 63.5189 24.647 62.4724 22.414L65.8625 20.5919C66.2265 21.3668 66.909 22.1641 68.3195 22.1641C69.7993 22.1641 70.7772 21.2296 70.8913 19.5895C70.3453 20.0683 69.4801 20.4323 68.1837 20.4323C65.0204 20.4323 62.4717 17.9949 62.4717 14.5775C62.4717 11.2749 65.18 8.5862 68.7297 8.5862C72.3704 8.5862 74.987 11.1153 74.987 14.6006V19.1114C74.987 23.212 72.1422 25.9 68.3881 25.9ZM68.6611 16.583C69.8896 16.583 70.8227 15.7395 70.8227 14.4865C70.8227 13.2566 69.8903 12.4362 68.6611 12.4362C67.455 12.4362 66.4995 13.2566 66.4995 14.4872C66.4995 15.7402 67.455 16.5823 68.6611 16.5823V16.583ZM55.5249 20.6605C51.9752 20.6605 49.2669 17.927 49.2669 14.6006C49.2669 11.2973 51.9752 8.5638 55.5249 8.5638C59.0739 8.5638 61.7822 11.2973 61.7822 14.6006C61.7822 17.927 59.0746 20.6605 55.5249 20.6605ZM55.5249 16.8105C56.822 16.8105 57.6865 15.8081 57.6865 14.623C57.6865 13.4162 56.822 12.4138 55.5249 12.4138C54.2278 12.4138 53.3633 13.4162 53.3633 14.623C53.3633 15.8081 54.2278 16.8105 55.5249 16.8105ZM41.8091 4.942V16.4458H48.59V20.3189H41.24C38.6465 20.3189 37.6 18.9518 37.6 16.7874V4.942H41.8091Z" fill="#0A0A0A" fill-opacity="0.4"/>
</g>
<defs>
<clipPath id="clip0_7141_5674">
<rect width="154" height="28" fill="white" transform="translate(0.5)"/>
</clipPath>
</defs>
</svg>
