<svg width="144" height="144" viewBox="0 0 144 144" fill="none" xmlns="http://www.w3.org/2000/svg">
<path d="M62.1831 9.94456L52.4861 19.6415L52.4134 30.6233L52.3164 41.5809L53.7952 42.0415C54.6194 42.2839 55.8558 42.89 56.5588 43.3991L57.8194 44.3203L58.9103 43.5203C60.3406 42.5021 67.3225 37.4355 79.5164 28.6112C84.9225 24.7082 89.7952 21.1688 90.377 20.7567C90.9346 20.3688 91.3952 19.9809 91.3952 19.9082C91.3952 19.8112 87.0073 15.3749 81.6255 9.99304L71.88 0.247585L62.1831 9.94456Z" fill="black"/>
<path d="M62.1831 9.94456L52.4861 19.6415L52.4134 30.6233L52.3164 41.5809L53.7952 42.0415C54.6194 42.2839 55.8558 42.89 56.5588 43.3991L57.8194 44.3203L58.9103 43.5203C60.3406 42.5021 67.3225 37.4355 79.5164 28.6112C84.9225 24.7082 89.7952 21.1688 90.377 20.7567C90.9346 20.3688 91.3952 19.9809 91.3952 19.9082C91.3952 19.8112 87.0073 15.3749 81.6255 9.99304L71.88 0.247585L62.1831 9.94456Z" fill="#413DDE"/>
<path d="M62.1831 9.94456L52.4861 19.6415L52.4134 30.6233L52.3164 41.5809L53.7952 42.0415C54.6194 42.2839 55.8558 42.89 56.5588 43.3991L57.8194 44.3203L58.9103 43.5203C60.3406 42.5021 67.3225 37.4355 79.5164 28.6112C84.9225 24.7082 89.7952 21.1688 90.377 20.7567C90.9346 20.3688 91.3952 19.9809 91.3952 19.9082C91.3952 19.8112 87.0073 15.3749 81.6255 9.99304L71.88 0.247585L62.1831 9.94456Z" fill="url(#paint0_radial_7233_17194)"/>
<path d="M62.1831 9.94456L52.4861 19.6415L52.4134 30.6233L52.3164 41.5809L53.7952 42.0415C54.6194 42.2839 55.8558 42.89 56.5588 43.3991L57.8194 44.3203L58.9103 43.5203C60.3406 42.5021 67.3225 37.4355 79.5164 28.6112C84.9225 24.7082 89.7952 21.1688 90.377 20.7567C90.9346 20.3688 91.3952 19.9809 91.3952 19.9082C91.3952 19.8112 87.0073 15.3749 81.6255 9.99304L71.88 0.247585L62.1831 9.94456Z" fill="url(#paint1_radial_7233_17194)"/>
<path d="M29.0919 27.0798C32.2192 30.2314 37.1646 35.1768 40.0737 38.0617L45.3343 43.3223L46.7162 42.6192C47.4677 42.2556 48.2677 41.9404 48.5101 41.9404C48.7525 41.9404 49.0677 41.7223 49.2131 41.4798C49.3586 41.1647 49.4556 37.4798 49.4556 31.1768V21.3344H36.4374H23.4192L29.0919 27.0798Z" fill="black"/>
<path d="M29.0919 27.0798C32.2192 30.2314 37.1646 35.1768 40.0737 38.0617L45.3343 43.3223L46.7162 42.6192C47.4677 42.2556 48.2677 41.9404 48.5101 41.9404C48.7525 41.9404 49.0677 41.7223 49.2131 41.4798C49.3586 41.1647 49.4556 37.4798 49.4556 31.1768V21.3344H36.4374H23.4192L29.0919 27.0798Z" fill="#413DDE"/>
<path d="M29.0919 27.0798C32.2192 30.2314 37.1646 35.1768 40.0737 38.0617L45.3343 43.3223L46.7162 42.6192C47.4677 42.2556 48.2677 41.9404 48.5101 41.9404C48.7525 41.9404 49.0677 41.7223 49.2131 41.4798C49.3586 41.1647 49.4556 37.4798 49.4556 31.1768V21.3344H36.4374H23.4192L29.0919 27.0798Z" fill="url(#paint2_radial_7233_17194)"/>
<path d="M29.0919 27.0798C32.2192 30.2314 37.1646 35.1768 40.0737 38.0617L45.3343 43.3223L46.7162 42.6192C47.4677 42.2556 48.2677 41.9404 48.5101 41.9404C48.7525 41.9404 49.0677 41.7223 49.2131 41.4798C49.3586 41.1647 49.4556 37.4798 49.4556 31.1768V21.3344H36.4374H23.4192L29.0919 27.0798Z" fill="url(#paint3_radial_7233_17194)"/>
<path d="M87.5146 26.5741C83.5873 29.459 79.054 32.7317 77.454 33.8953C69.26 39.762 60.4358 46.1863 60.0722 46.5257C59.6843 46.8893 59.6843 46.9863 60.0722 48.1741L60.4843 49.459H91.5873H122.666V35.3984V21.3378L108.678 21.362H94.6661L87.5146 26.5741Z" fill="black"/>
<path d="M87.5146 26.5741C83.5873 29.459 79.054 32.7317 77.454 33.8953C69.26 39.762 60.4358 46.1863 60.0722 46.5257C59.6843 46.8893 59.6843 46.9863 60.0722 48.1741L60.4843 49.459H91.5873H122.666V35.3984V21.3378L108.678 21.362H94.6661L87.5146 26.5741Z" fill="#413DDE"/>
<path d="M87.5146 26.5741C83.5873 29.459 79.054 32.7317 77.454 33.8953C69.26 39.762 60.4358 46.1863 60.0722 46.5257C59.6843 46.8893 59.6843 46.9863 60.0722 48.1741L60.4843 49.459H91.5873H122.666V35.3984V21.3378L108.678 21.362H94.6661L87.5146 26.5741Z" fill="url(#paint4_radial_7233_17194)"/>
<path d="M87.5146 26.5741C83.5873 29.459 79.054 32.7317 77.454 33.8953C69.26 39.762 60.4358 46.1863 60.0722 46.5257C59.6843 46.8893 59.6843 46.9863 60.0722 48.1741L60.4843 49.459H91.5873H122.666V35.3984V21.3378L108.678 21.362H94.6661L87.5146 26.5741Z" fill="url(#paint5_radial_7233_17194)"/>
<path d="M21.092 36.4388V49.457L31.2981 49.4085L41.5284 49.3358L41.8193 48.3176C41.989 47.7601 42.3769 46.9116 42.6678 46.4267L43.2254 45.5298L32.1466 34.451L21.092 23.3964V36.4388Z" fill="black"/>
<path d="M21.092 36.4388V49.457L31.2981 49.4085L41.5284 49.3358L41.8193 48.3176C41.989 47.7601 42.3769 46.9116 42.6678 46.4267L43.2254 45.5298L32.1466 34.451L21.092 23.3964V36.4388Z" fill="#413DDE"/>
<path d="M21.092 36.4388V49.457L31.2981 49.4085L41.5284 49.3358L41.8193 48.3176C41.989 47.7601 42.3769 46.9116 42.6678 46.4267L43.2254 45.5298L32.1466 34.451L21.092 23.3964V36.4388Z" fill="url(#paint6_radial_7233_17194)"/>
<path d="M21.092 36.4388V49.457L31.2981 49.4085L41.5284 49.3358L41.8193 48.3176C41.989 47.7601 42.3769 46.9116 42.6678 46.4267L43.2254 45.5298L32.1466 34.451L21.092 23.3964V36.4388Z" fill="url(#paint7_radial_7233_17194)"/>
<path d="M9.7457 62.379L0.000244141 72.1244L9.89115 82.0153L19.7821 91.9062L23.1518 87.2275C24.9942 84.6578 28.0002 80.4638 29.8427 77.9426C31.6608 75.3972 35.6124 69.9184 38.6184 65.7487L44.0972 58.1608L43.273 56.9487C42.5457 55.882 41.4548 53.4335 41.4548 52.8517C41.4548 52.7062 37.3578 52.6093 30.473 52.6093H19.5154L9.7457 62.379Z" fill="black"/>
<path d="M9.7457 62.379L0.000244141 72.1244L9.89115 82.0153L19.7821 91.9062L23.1518 87.2275C24.9942 84.6578 28.0002 80.4638 29.8427 77.9426C31.6608 75.3972 35.6124 69.9184 38.6184 65.7487L44.0972 58.1608L43.273 56.9487C42.5457 55.882 41.4548 53.4335 41.4548 52.8517C41.4548 52.7062 37.3578 52.6093 30.473 52.6093H19.5154L9.7457 62.379Z" fill="#413DDE"/>
<path d="M9.7457 62.379L0.000244141 72.1244L9.89115 82.0153L19.7821 91.9062L23.1518 87.2275C24.9942 84.6578 28.0002 80.4638 29.8427 77.9426C31.6608 75.3972 35.6124 69.9184 38.6184 65.7487L44.0972 58.1608L43.273 56.9487C42.5457 55.882 41.4548 53.4335 41.4548 52.8517C41.4548 52.7062 37.3578 52.6093 30.473 52.6093H19.5154L9.7457 62.379Z" fill="url(#paint8_radial_7233_17194)"/>
<path d="M9.7457 62.379L0.000244141 72.1244L9.89115 82.0153L19.7821 91.9062L23.1518 87.2275C24.9942 84.6578 28.0002 80.4638 29.8427 77.9426C31.6608 75.3972 35.6124 69.9184 38.6184 65.7487L44.0972 58.1608L43.273 56.9487C42.5457 55.882 41.4548 53.4335 41.4548 52.8517C41.4548 52.7062 37.3578 52.6093 30.473 52.6093H19.5154L9.7457 62.379Z" fill="url(#paint9_radial_7233_17194)"/>
<path d="M60.5104 52.8981C60.1953 53.9648 59.5165 55.7102 59.2014 56.1951C58.765 56.8738 56.1468 54.1829 93.6256 91.7587L122.644 120.85L122.668 107.031V93.2132L133.213 82.6678L143.759 72.1223L134.013 62.3769L124.244 52.6072H92.4135C67.1771 52.6072 60.5832 52.6799 60.5104 52.8981Z" fill="black"/>
<path d="M60.5104 52.8981C60.1953 53.9648 59.5165 55.7102 59.2014 56.1951C58.765 56.8738 56.1468 54.1829 93.6256 91.7587L122.644 120.85L122.668 107.031V93.2132L133.213 82.6678L143.759 72.1223L134.013 62.3769L124.244 52.6072H92.4135C67.1771 52.6072 60.5832 52.6799 60.5104 52.8981Z" fill="#413DDE"/>
<path d="M60.5104 52.8981C60.1953 53.9648 59.5165 55.7102 59.2014 56.1951C58.765 56.8738 56.1468 54.1829 93.6256 91.7587L122.644 120.85L122.668 107.031V93.2132L133.213 82.6678L143.759 72.1223L134.013 62.3769L124.244 52.6072H92.4135C67.1771 52.6072 60.5832 52.6799 60.5104 52.8981Z" fill="url(#paint10_radial_7233_17194)"/>
<path d="M60.5104 52.8981C60.1953 53.9648 59.5165 55.7102 59.2014 56.1951C58.765 56.8738 56.1468 54.1829 93.6256 91.7587L122.644 120.85L122.668 107.031V93.2132L133.213 82.6678L143.759 72.1223L134.013 62.3769L124.244 52.6072H92.4135C67.1771 52.6072 60.5832 52.6799 60.5104 52.8981Z" fill="url(#paint11_radial_7233_17194)"/>
<path d="M55.3939 59.6888C54.8606 59.9797 53.9879 60.3433 53.4546 60.4888L52.4849 60.7797L52.3636 92.513L52.2424 124.246L62.0606 134.137L71.8788 144.004L82.4243 133.458L92.9697 122.913L106.618 122.865L120.267 122.792L88.6061 90.9615C71.1758 73.4827 56.8 59.1554 56.6303 59.1554C56.4849 59.1797 55.9273 59.3978 55.3939 59.6888Z" fill="black"/>
<path d="M55.3939 59.6888C54.8606 59.9797 53.9879 60.3433 53.4546 60.4888L52.4849 60.7797L52.3636 92.513L52.2424 124.246L62.0606 134.137L71.8788 144.004L82.4243 133.458L92.9697 122.913L106.618 122.865L120.267 122.792L88.6061 90.9615C71.1758 73.4827 56.8 59.1554 56.6303 59.1554C56.4849 59.1797 55.9273 59.3978 55.3939 59.6888Z" fill="#413DDE"/>
<path d="M55.3939 59.6888C54.8606 59.9797 53.9879 60.3433 53.4546 60.4888L52.4849 60.7797L52.3636 92.513L52.2424 124.246L62.0606 134.137L71.8788 144.004L82.4243 133.458L92.9697 122.913L106.618 122.865L120.267 122.792L88.6061 90.9615C71.1758 73.4827 56.8 59.1554 56.6303 59.1554C56.4849 59.1797 55.9273 59.3978 55.3939 59.6888Z" fill="url(#paint12_radial_7233_17194)"/>
<path d="M55.3939 59.6888C54.8606 59.9797 53.9879 60.3433 53.4546 60.4888L52.4849 60.7797L52.3636 92.513L52.2424 124.246L62.0606 134.137L71.8788 144.004L82.4243 133.458L92.9697 122.913L106.618 122.865L120.267 122.792L88.6061 90.9615C71.1758 73.4827 56.8 59.1554 56.6303 59.1554C56.4849 59.1797 55.9273 59.3978 55.3939 59.6888Z" fill="url(#paint13_radial_7233_17194)"/>
<path d="M43.9769 63.5647C42.4981 65.6011 38.5708 71.0314 35.2739 75.6374C31.9526 80.2435 27.4193 86.5465 25.1648 89.6495L21.092 95.298V109.092V122.91H35.1526H49.2133V100.656C49.2133 88.4374 49.286 74.4495 49.383 69.5768L49.5284 60.7283L48.4617 60.4617C47.8799 60.3162 47.2254 60.1223 47.0314 60.0253C46.7405 59.9041 45.9648 60.8253 43.9769 63.5647Z" fill="black"/>
<path d="M43.9769 63.5647C42.4981 65.6011 38.5708 71.0314 35.2739 75.6374C31.9526 80.2435 27.4193 86.5465 25.1648 89.6495L21.092 95.298V109.092V122.91H35.1526H49.2133V100.656C49.2133 88.4374 49.286 74.4495 49.383 69.5768L49.5284 60.7283L48.4617 60.4617C47.8799 60.3162 47.2254 60.1223 47.0314 60.0253C46.7405 59.9041 45.9648 60.8253 43.9769 63.5647Z" fill="#413DDE"/>
<path d="M43.9769 63.5647C42.4981 65.6011 38.5708 71.0314 35.2739 75.6374C31.9526 80.2435 27.4193 86.5465 25.1648 89.6495L21.092 95.298V109.092V122.91H35.1526H49.2133V100.656C49.2133 88.4374 49.286 74.4495 49.383 69.5768L49.5284 60.7283L48.4617 60.4617C47.8799 60.3162 47.2254 60.1223 47.0314 60.0253C46.7405 59.9041 45.9648 60.8253 43.9769 63.5647Z" fill="url(#paint14_radial_7233_17194)"/>
<path d="M43.9769 63.5647C42.4981 65.6011 38.5708 71.0314 35.2739 75.6374C31.9526 80.2435 27.4193 86.5465 25.1648 89.6495L21.092 95.298V109.092V122.91H35.1526H49.2133V100.656C49.2133 88.4374 49.286 74.4495 49.383 69.5768L49.5284 60.7283L48.4617 60.4617C47.8799 60.3162 47.2254 60.1223 47.0314 60.0253C46.7405 59.9041 45.9648 60.8253 43.9769 63.5647Z" fill="url(#paint15_radial_7233_17194)"/>
<defs>
<radialGradient id="paint0_radial_7233_17194" cx="0" cy="0" r="1" gradientUnits="userSpaceOnUse" gradientTransform="translate(53.9754 -31.8996) rotate(82.6511) scale(71.3645 35.7817)">
<stop stop-color="#090833"/>
<stop offset="1" stop-color="#2622C8" stop-opacity="0"/>
</radialGradient>
<radialGradient id="paint1_radial_7233_17194" cx="0" cy="0" r="1" gradientUnits="userSpaceOnUse" gradientTransform="translate(98.5474 -24.0356) rotate(119.551) scale(83.3461 87.8455)">
<stop stop-color="#BA84FF"/>
<stop offset="1" stop-color="#2622C8" stop-opacity="0"/>
</radialGradient>
<radialGradient id="paint2_radial_7233_17194" cx="0" cy="0" r="1" gradientUnits="userSpaceOnUse" gradientTransform="translate(24.5245 5.29617) rotate(80.2276) scale(35.8312 23.6883)">
<stop stop-color="#090833"/>
<stop offset="1" stop-color="#2622C8" stop-opacity="0"/>
</radialGradient>
<radialGradient id="paint3_radial_7233_17194" cx="0" cy="0" r="1" gradientUnits="userSpaceOnUse" gradientTransform="translate(54.2207 9.2195) rotate(127.131) scale(45.3706 53.6392)">
<stop stop-color="#BA84FF"/>
<stop offset="1" stop-color="#2622C8" stop-opacity="0"/>
</radialGradient>
<radialGradient id="paint4_radial_7233_17194" cx="0" cy="0" r="1" gradientUnits="userSpaceOnUse" gradientTransform="translate(62.4509 0.82583) rotate(71.9822) scale(47.4899 55.2091)">
<stop stop-color="#090833"/>
<stop offset="1" stop-color="#2622C8" stop-opacity="0"/>
</radialGradient>
<radialGradient id="paint5_radial_7233_17194" cx="0" cy="0" r="1" gradientUnits="userSpaceOnUse" gradientTransform="translate(134.175 5.84353) rotate(145.032) scale(80.72 93.1307)">
<stop stop-color="#BA84FF"/>
<stop offset="1" stop-color="#2622C8" stop-opacity="0"/>
</radialGradient>
<radialGradient id="paint6_radial_7233_17194" cx="0" cy="0" r="1" gradientUnits="userSpaceOnUse" gradientTransform="translate(22.0317 4.38752) rotate(82.9577) scale(42.1699 20.2796)">
<stop stop-color="#090833"/>
<stop offset="1" stop-color="#2622C8" stop-opacity="0"/>
</radialGradient>
<radialGradient id="paint7_radial_7233_17194" cx="0" cy="0" r="1" gradientUnits="userSpaceOnUse" gradientTransform="translate(47.2762 9.03754) rotate(118.504) scale(48.786 50.2609)">
<stop stop-color="#BA84FF"/>
<stop offset="1" stop-color="#2622C8" stop-opacity="0"/>
</radialGradient>
<radialGradient id="paint8_radial_7233_17194" cx="0" cy="0" r="1" gradientUnits="userSpaceOnUse" gradientTransform="translate(1.87229 23.9456) rotate(80.73) scale(63.9438 40.1792)">
<stop stop-color="#090833"/>
<stop offset="1" stop-color="#2622C8" stop-opacity="0"/>
</radialGradient>
<radialGradient id="paint9_radial_7233_17194" cx="0" cy="0" r="1" gradientUnits="userSpaceOnUse" gradientTransform="translate(52.1678 30.9574) rotate(125.66) scale(79.5667 92.5828)">
<stop stop-color="#BA84FF"/>
<stop offset="1" stop-color="#2622C8" stop-opacity="0"/>
</radialGradient>
<radialGradient id="paint10_radial_7233_17194" cx="0" cy="0" r="1" gradientUnits="userSpaceOnUse" gradientTransform="translate(62.5955 2.83035) rotate(79.7593) scale(111.368 77.0066)">
<stop stop-color="#090833"/>
<stop offset="1" stop-color="#2622C8" stop-opacity="0"/>
</radialGradient>
<radialGradient id="paint11_radial_7233_17194" cx="0" cy="0" r="1" gradientUnits="userSpaceOnUse" gradientTransform="translate(159.272 15.0069) rotate(128.456) scale(143.363 171.518)">
<stop stop-color="#BA84FF"/>
<stop offset="1" stop-color="#2622C8" stop-opacity="0"/>
</radialGradient>
<radialGradient id="paint12_radial_7233_17194" cx="0" cy="0" r="1" gradientUnits="userSpaceOnUse" gradientTransform="translate(55.1303 -2.73406) rotate(83.3487) scale(137.185 62.3782)">
<stop stop-color="#090833"/>
<stop offset="1" stop-color="#2622C8" stop-opacity="0"/>
</radialGradient>
<radialGradient id="paint13_radial_7233_17194" cx="0" cy="0" r="1" gradientUnits="userSpaceOnUse" gradientTransform="translate(132.716 12.4056) rotate(117.141) scale(156.856 156.423)">
<stop stop-color="#BA84FF"/>
<stop offset="1" stop-color="#2622C8" stop-opacity="0"/>
</radialGradient>
<radialGradient id="paint14_radial_7233_17194" cx="0" cy="0" r="1" gradientUnits="userSpaceOnUse" gradientTransform="translate(22.2992 14.1383) rotate(86.2375) scale(101.224 26.1962)">
<stop stop-color="#090833"/>
<stop offset="1" stop-color="#2622C8" stop-opacity="0"/>
</radialGradient>
<radialGradient id="paint15_radial_7233_17194" cx="0" cy="0" r="1" gradientUnits="userSpaceOnUse" gradientTransform="translate(54.7328 25.3608) rotate(106.124) scale(107.706 70.5906)">
<stop stop-color="#BA84FF"/>
<stop offset="1" stop-color="#2622C8" stop-opacity="0"/>
</radialGradient>
</defs>
</svg>
