<svg width="24" height="24" viewBox="0 0 24 24" fill="none" xmlns="http://www.w3.org/2000/svg">
<g clip-path="url(#clip0_7141_6071)">
<path d="M12 2.1707C15.2063 2.1707 15.5859 2.18477 16.8469 2.24102C18.0188 2.29258 18.6516 2.48945 19.0734 2.65352C19.6313 2.86914 20.0344 3.13164 20.4516 3.54883C20.8734 3.9707 21.1313 4.36914 21.3469 4.92695C21.5109 5.34883 21.7078 5.98633 21.7594 7.15352C21.8156 8.41914 21.8297 8.79883 21.8297 12.0004C21.8297 15.2066 21.8156 15.5863 21.7594 16.8473C21.7078 18.0191 21.5109 18.652 21.3469 19.0738C21.1313 19.6316 20.8687 20.0348 20.4516 20.452C20.0297 20.8738 19.6313 21.1316 19.0734 21.3473C18.6516 21.5113 18.0141 21.7082 16.8469 21.7598C15.5813 21.816 15.2016 21.8301 12 21.8301C8.79375 21.8301 8.41406 21.816 7.15313 21.7598C5.98125 21.7082 5.34844 21.5113 4.92656 21.3473C4.36875 21.1316 3.96563 20.8691 3.54844 20.452C3.12656 20.0301 2.86875 19.6316 2.65313 19.0738C2.48906 18.652 2.29219 18.0145 2.24063 16.8473C2.18438 15.5816 2.17031 15.202 2.17031 12.0004C2.17031 8.79414 2.18438 8.41445 2.24063 7.15352C2.29219 5.98164 2.48906 5.34883 2.65313 4.92695C2.86875 4.36914 3.13125 3.96602 3.54844 3.54883C3.97031 3.12695 4.36875 2.86914 4.92656 2.65352C5.34844 2.48945 5.98594 2.29258 7.15313 2.24102C8.41406 2.18477 8.79375 2.1707 12 2.1707ZM12 0.00976562C8.74219 0.00976562 8.33438 0.0238281 7.05469 0.0800781C5.77969 0.136328 4.90313 0.342578 4.14375 0.637891C3.35156 0.947266 2.68125 1.35508 2.01563 2.02539C1.34531 2.69102 0.9375 3.36133 0.628125 4.14883C0.332812 4.91289 0.126563 5.78477 0.0703125 7.05977C0.0140625 8.34414 0 8.75195 0 12.0098C0 15.2676 0.0140625 15.6754 0.0703125 16.9551C0.126563 18.2301 0.332812 19.1066 0.628125 19.866C0.9375 20.6582 1.34531 21.3285 2.01563 21.9941C2.68125 22.6598 3.35156 23.0723 4.13906 23.377C4.90313 23.6723 5.775 23.8785 7.05 23.9348C8.32969 23.991 8.7375 24.0051 11.9953 24.0051C15.2531 24.0051 15.6609 23.991 16.9406 23.9348C18.2156 23.8785 19.0922 23.6723 19.8516 23.377C20.6391 23.0723 21.3094 22.6598 21.975 21.9941C22.6406 21.3285 23.0531 20.6582 23.3578 19.8707C23.6531 19.1066 23.8594 18.2348 23.9156 16.9598C23.9719 15.6801 23.9859 15.2723 23.9859 12.0145C23.9859 8.75664 23.9719 8.34883 23.9156 7.06914C23.8594 5.79414 23.6531 4.91758 23.3578 4.1582C23.0625 3.36133 22.6547 2.69102 21.9844 2.02539C21.3188 1.35977 20.6484 0.947266 19.8609 0.642578C19.0969 0.347266 18.225 0.141016 16.95 0.0847656C15.6656 0.0238281 15.2578 0.00976562 12 0.00976562Z" fill="#B060FF"/>
<path d="M12 5.8457C8.59688 5.8457 5.83594 8.60664 5.83594 12.0098C5.83594 15.4129 8.59688 18.1738 12 18.1738C15.4031 18.1738 18.1641 15.4129 18.1641 12.0098C18.1641 8.60664 15.4031 5.8457 12 5.8457ZM12 16.0082C9.79219 16.0082 8.00156 14.2176 8.00156 12.0098C8.00156 9.80195 9.79219 8.01133 12 8.01133C14.2078 8.01133 15.9984 9.80195 15.9984 12.0098C15.9984 14.2176 14.2078 16.0082 12 16.0082Z" fill="#B060FF"/>
<path d="M19.8469 5.60117C19.8469 6.39805 19.2 7.04024 18.4078 7.04024C17.6109 7.04024 16.9688 6.39336 16.9688 5.60117C16.9688 4.8043 17.6156 4.16211 18.4078 4.16211C19.2 4.16211 19.8469 4.80899 19.8469 5.60117Z" fill="#B060FF"/>
</g>
<defs>
<clipPath id="clip0_7141_6071">
<rect width="24" height="24" fill="white" transform="translate(0 0.00976562)"/>
</clipPath>
</defs>
</svg>
