<svg width="48" height="48" viewBox="0 0 48 48" fill="none" xmlns="http://www.w3.org/2000/svg">
<g clip-path="url(#clip0_7141_5599)">
<path d="M20.7274 3.30872L17.495 6.53561L17.4708 10.1901L17.4385 13.8365L17.9314 13.9897C18.2062 14.0704 18.6183 14.2721 18.8526 14.4415L19.2728 14.748L19.6365 14.4818C20.1132 14.143 22.4405 12.457 26.5051 9.52048C28.3072 8.22166 29.9314 7.04385 30.1253 6.9067C30.3112 6.77763 30.4647 6.64855 30.4647 6.62435C30.4647 6.59208 29.0021 5.11578 27.2082 3.32485L23.9597 0.0818281L20.7274 3.30872Z" fill="black"/>
<path d="M20.7274 3.30872L17.495 6.53561L17.4708 10.1901L17.4385 13.8365L17.9314 13.9897C18.2062 14.0704 18.6183 14.2721 18.8526 14.4415L19.2728 14.748L19.6365 14.4818C20.1132 14.143 22.4405 12.457 26.5051 9.52048C28.3072 8.22166 29.9314 7.04385 30.1253 6.9067C30.3112 6.77763 30.4647 6.64855 30.4647 6.62435C30.4647 6.59208 29.0021 5.11578 27.2082 3.32485L23.9597 0.0818281L20.7274 3.30872Z" fill="#030712"/>
<path d="M9.69706 9.01097C10.7395 10.0597 12.388 11.7054 13.3577 12.6654L15.1112 14.416L15.5718 14.1821C15.8223 14.0611 16.089 13.9562 16.1698 13.9562C16.2506 13.9562 16.3556 13.8836 16.4041 13.8029C16.4526 13.698 16.4849 12.4718 16.4849 10.3743V7.09904H12.1455H7.80615L9.69706 9.01097Z" fill="black"/>
<path d="M9.69706 9.01097C10.7395 10.0597 12.388 11.7054 13.3577 12.6654L15.1112 14.416L15.5718 14.1821C15.8223 14.0611 16.089 13.9562 16.1698 13.9562C16.2506 13.9562 16.3556 13.8836 16.4041 13.8029C16.4526 13.698 16.4849 12.4718 16.4849 10.3743V7.09904H12.1455H7.80615L9.69706 9.01097Z" fill="#030712"/>
<path d="M29.1717 8.84255C27.8626 9.80255 26.3515 10.8916 25.8182 11.2788C23.0868 13.2311 20.1454 15.3689 20.0242 15.4819C19.8949 15.6029 19.8949 15.6352 20.0242 16.0304L20.1616 16.458H30.5293H40.8889V11.779V7.10002L36.2262 7.10809H31.5555L29.1717 8.84255Z" fill="black"/>
<path d="M29.1717 8.84255C27.8626 9.80255 26.3515 10.8916 25.8182 11.2788C23.0868 13.2311 20.1454 15.3689 20.0242 15.4819C19.8949 15.6029 19.8949 15.6352 20.0242 16.0304L20.1616 16.458H30.5293H40.8889V11.779V7.10002L36.2262 7.10809H31.5555L29.1717 8.84255Z" fill="#030712"/>
<path d="M7.03076 12.1249V16.457L10.4328 16.4409L13.8429 16.4167L13.9399 16.0779C13.9964 15.8923 14.1257 15.61 14.2227 15.4486L14.4085 15.1501L10.7156 11.4634L7.03076 7.78476V12.1249Z" fill="black"/>
<path d="M7.03076 12.1249V16.457L10.4328 16.4409L13.8429 16.4167L13.9399 16.0779C13.9964 15.8923 14.1257 15.61 14.2227 15.4486L14.4085 15.1501L10.7156 11.4634L7.03076 7.78476V12.1249Z" fill="#030712"/>
<path d="M3.24849 20.7571L0 24.0001L3.29697 27.2916L6.59394 30.583L7.71717 29.026C8.33131 28.1709 9.33333 26.7753 9.94748 25.9363C10.5535 25.0892 11.8707 23.266 12.8727 21.8785L14.699 19.3534L14.4242 18.9501C14.1818 18.5951 13.8182 17.7803 13.8182 17.5867C13.8182 17.5383 12.4525 17.506 10.1576 17.506H6.50505L3.24849 20.7571Z" fill="black"/>
<path d="M3.24849 20.7571L0 24.0001L3.29697 27.2916L6.59394 30.583L7.71717 29.026C8.33131 28.1709 9.33333 26.7753 9.94748 25.9363C10.5535 25.0892 11.8707 23.266 12.8727 21.8785L14.699 19.3534L14.4242 18.9501C14.1818 18.5951 13.8182 17.7803 13.8182 17.5867C13.8182 17.5383 12.4525 17.506 10.1576 17.506H6.50505L3.24849 20.7571Z" fill="#030712"/>
<path d="M20.17 17.6024C20.0649 17.9574 19.8387 18.5382 19.7336 18.6995C19.5882 18.9254 18.7154 18.03 31.2084 30.5342L40.8811 40.2148L40.8892 35.6165V31.0182L44.4043 27.509L47.9195 23.9997L44.671 20.7567L41.4144 17.5056H30.8043C22.3922 17.5056 20.1942 17.5298 20.17 17.6024Z" fill="black"/>
<path d="M20.17 17.6024C20.0649 17.9574 19.8387 18.5382 19.7336 18.6995C19.5882 18.9254 18.7154 18.03 31.2084 30.5342L40.8811 40.2148L40.8892 35.6165V31.0182L44.4043 27.509L47.9195 23.9997L44.671 20.7567L41.4144 17.5056H30.8043C22.3922 17.5056 20.1942 17.5298 20.17 17.6024Z" fill="#030712"/>
<path d="M18.4646 19.8621C18.2868 19.9589 17.9959 20.0799 17.8181 20.1283L17.4949 20.2251L17.4545 30.7851L17.4141 41.3451L20.6868 44.6366L23.9595 47.9199L27.4747 44.4107L30.9898 40.9014L35.5393 40.8853L40.0888 40.8611L29.5353 30.2688C23.7252 24.4524 18.9333 19.6846 18.8767 19.6846C18.8282 19.6927 18.6423 19.7653 18.4646 19.8621Z" fill="black"/>
<path d="M18.4646 19.8621C18.2868 19.9589 17.9959 20.0799 17.8181 20.1283L17.4949 20.2251L17.4545 30.7851L17.4141 41.3451L20.6868 44.6366L23.9595 47.9199L27.4747 44.4107L30.9898 40.9014L35.5393 40.8853L40.0888 40.8611L29.5353 30.2688C23.7252 24.4524 18.9333 19.6846 18.8767 19.6846C18.8282 19.6927 18.6423 19.7653 18.4646 19.8621Z" fill="#030712"/>
<path d="M14.659 21.1518C14.1661 21.8295 12.857 23.6365 11.758 25.1693C10.651 26.7021 9.13985 28.7996 8.38834 29.8322L7.03076 31.7118V36.3021V40.9004H11.7176H16.4045V33.4947C16.4045 29.4288 16.4287 24.774 16.4611 23.1525L16.5096 20.208L16.154 20.1192C15.9601 20.0708 15.7419 20.0063 15.6772 19.974C15.5803 19.9337 15.3217 20.2402 14.659 21.1518Z" fill="black"/>
<path d="M14.659 21.1518C14.1661 21.8295 12.857 23.6365 11.758 25.1693C10.651 26.7021 9.13985 28.7996 8.38834 29.8322L7.03076 31.7118V36.3021V40.9004H11.7176H16.4045V33.4947C16.4045 29.4288 16.4287 24.774 16.4611 23.1525L16.5096 20.208L16.154 20.1192C15.9601 20.0708 15.7419 20.0063 15.6772 19.974C15.5803 19.9337 15.3217 20.2402 14.659 21.1518Z" fill="#030712"/>
</g>
<defs>
<clipPath id="clip0_7141_5599">
<rect width="48" height="48" fill="white"/>
</clipPath>
</defs>
</svg>
