<svg width="18" height="18" viewBox="0 0 18 18" fill="none" xmlns="http://www.w3.org/2000/svg">
<path d="M13.6832 7.96745C13.3248 7.96745 13.0415 7.67578 13.0415 7.32578C13.0415 7.01745 12.7332 6.37578 12.2165 5.81745C11.7082 5.27578 11.1498 4.95911 10.6832 4.95911C10.3248 4.95911 10.0415 4.66745 10.0415 4.31745C10.0415 3.96745 10.3332 3.67578 10.6832 3.67578C11.5165 3.67578 12.3915 4.12578 13.1582 4.93411C13.8748 5.69245 14.3332 6.63412 14.3332 7.31745C14.3332 7.67578 14.0415 7.96745 13.6832 7.96745Z" fill="#B060FF"/>
<path d="M16.6915 7.96745C16.3332 7.96745 16.0498 7.67578 16.0498 7.32578C16.0498 4.36745 13.6415 1.96745 10.6915 1.96745C10.3332 1.96745 10.0498 1.67578 10.0498 1.32578C10.0498 0.975781 10.3332 0.675781 10.6832 0.675781C14.3498 0.675781 17.3332 3.65911 17.3332 7.32578C17.3332 7.67578 17.0415 7.96745 16.6915 7.96745Z" fill="#B060FF"/>
<path d="M8.20817 11.4674L6.6665 13.0091C6.3415 13.3341 5.82484 13.3341 5.4915 13.0174C5.39984 12.9258 5.30817 12.8424 5.2165 12.7508C4.35817 11.8841 3.58317 10.9758 2.8915 10.0258C2.20817 9.07578 1.65817 8.12578 1.25817 7.18412C0.866504 6.23412 0.666504 5.32578 0.666504 4.45911C0.666504 3.89245 0.766504 3.35078 0.966504 2.85078C1.1665 2.34245 1.48317 1.87578 1.92484 1.45911C2.45817 0.934115 3.0415 0.675781 3.65817 0.675781C3.8915 0.675781 4.12484 0.725781 4.33317 0.825781C4.54984 0.925781 4.7415 1.07578 4.8915 1.29245L6.82484 4.01745C6.97484 4.22578 7.08317 4.41745 7.15817 4.60078C7.23317 4.77578 7.27484 4.95078 7.27484 5.10912C7.27484 5.30911 7.2165 5.50911 7.09984 5.70078C6.9915 5.89245 6.83317 6.09245 6.63317 6.29245L5.99984 6.95078C5.90817 7.04245 5.8665 7.15078 5.8665 7.28412C5.8665 7.35078 5.87484 7.40911 5.8915 7.47578C5.9165 7.54245 5.9415 7.59245 5.95817 7.64245C6.10817 7.91745 6.3665 8.27578 6.73317 8.70912C7.10817 9.14245 7.50817 9.58412 7.9415 10.0258C8.02484 10.1091 8.1165 10.1924 8.19984 10.2758C8.53317 10.6008 8.5415 11.1341 8.20817 11.4674Z" fill="#B060FF"/>
<path d="M17.3082 14.2841C17.3082 14.5174 17.2665 14.7591 17.1832 14.9924C17.1582 15.0591 17.1332 15.1258 17.0998 15.1924C16.9582 15.4924 16.7748 15.7758 16.5332 16.0424C16.1248 16.4924 15.6748 16.8174 15.1665 17.0258C15.1582 17.0258 15.1498 17.0341 15.1415 17.0341C14.6498 17.2341 14.1165 17.3424 13.5415 17.3424C12.6915 17.3424 11.7832 17.1424 10.8248 16.7341C9.8665 16.3258 8.90817 15.7758 7.95817 15.0841C7.63317 14.8424 7.30817 14.6008 6.99984 14.3424L9.72484 11.6174C9.95817 11.7924 10.1665 11.9258 10.3415 12.0174C10.3832 12.0341 10.4332 12.0591 10.4915 12.0841C10.5582 12.1091 10.6248 12.1174 10.6998 12.1174C10.8415 12.1174 10.9498 12.0674 11.0415 11.9758L11.6748 11.3508C11.8832 11.1424 12.0832 10.9841 12.2748 10.8841C12.4665 10.7674 12.6582 10.7091 12.8665 10.7091C13.0248 10.7091 13.1915 10.7424 13.3748 10.8174C13.5582 10.8924 13.7498 11.0008 13.9582 11.1424L16.7165 13.1008C16.9332 13.2508 17.0832 13.4258 17.1748 13.6341C17.2582 13.8424 17.3082 14.0508 17.3082 14.2841Z" fill="#B060FF"/>
</svg>
