<svg width="24" height="24" viewBox="0 0 24 24" fill="none" xmlns="http://www.w3.org/2000/svg">
<path fill-rule="evenodd" clip-rule="evenodd" d="M24 12.0098C24 18.6372 18.6274 24.0098 12 24.0098C5.37258 24.0098 0 18.6372 0 12.0098C0 5.38235 5.37258 0.00976562 12 0.00976562C18.6274 0.00976562 24 5.38235 24 12.0098ZM12.43 8.86869C11.2628 9.35416 8.93014 10.359 5.43189 11.8831C4.86383 12.109 4.56626 12.33 4.53917 12.5461C4.49339 12.9113 4.95071 13.0551 5.57348 13.2509C5.65819 13.2775 5.74596 13.3051 5.83594 13.3344C6.44864 13.5335 7.27283 13.7665 7.70129 13.7758C8.08994 13.7842 8.52373 13.624 9.00264 13.2951C12.2712 11.0888 13.9584 9.97358 14.0643 9.94953C14.139 9.93257 14.2426 9.91125 14.3128 9.97361C14.3829 10.036 14.376 10.1541 14.3686 10.1858C14.3233 10.3789 12.5281 12.0479 11.5991 12.9116C11.3095 13.1808 11.1041 13.3718 11.0621 13.4154C10.968 13.5131 10.8721 13.6055 10.78 13.6944C10.2108 14.2431 9.78391 14.6546 10.8036 15.3266C11.2936 15.6495 11.6857 15.9165 12.0769 16.1829C12.5042 16.4738 12.9303 16.764 13.4816 17.1254C13.6221 17.2175 13.7562 17.3131 13.8869 17.4063C14.3841 17.7607 14.8307 18.0792 15.3826 18.0284C15.7032 17.9989 16.0345 17.6974 16.2027 16.7981C16.6002 14.6729 17.3816 10.0682 17.5622 8.17074C17.578 8.0045 17.5581 7.79174 17.5422 7.69834C17.5262 7.60494 17.4928 7.47187 17.3714 7.37337C17.2276 7.2567 17.0056 7.2321 16.9064 7.23385C16.455 7.2418 15.7626 7.48258 12.43 8.86869Z" fill="#B060FF"/>
</svg>
